<svg width="70" height="69" viewBox="0 0 70 69" fill="none" xmlns="http://www.w3.org/2000/svg">
<path d="M37.9434 56.3176H15.9821C8.264 56.3176 2 50.0536 2 42.3354V15.4897C2 7.77158 8.264 1.50758 15.9821 1.50758H54.0136C61.7317 1.50758 67.9957 7.77158 67.9957 15.4897V20.5233" stroke="#1C1C1C" stroke-width="2.5" stroke-miterlimit="10" stroke-linecap="round" stroke-linejoin="round"/>
<path d="M15.9824 28.0737H36.1167" stroke="#1C1C1C" stroke-width="2.5" stroke-miterlimit="10" stroke-linecap="round" stroke-linejoin="round"/>
<path d="M15.9824 39.2593H28.7155" stroke="#1C1C1C" stroke-width="2.5" stroke-miterlimit="10" stroke-linecap="round" stroke-linejoin="round"/>
<path d="M57.5746 29.0988L58.1898 30.031C58.7677 30.9072 59.8303 31.3546 60.8557 31.1309L61.9556 30.9072C63.764 30.5343 65.3673 32.1376 65.0131 33.9646L64.7893 35.0645C64.5843 36.0899 65.0131 37.1525 65.8893 37.7305L66.8214 38.3457C68.3688 39.371 68.3688 41.6455 66.8214 42.6708L65.8893 43.286C65.0131 43.864 64.5656 44.9266 64.7893 45.952L65.0131 47.0519C65.3859 48.8602 63.7826 50.4635 61.9556 50.1093L60.8557 49.8856C59.8303 49.6805 58.7677 50.1093 58.1898 50.9855L57.5746 51.9177C56.5492 53.465 54.2748 53.465 53.2494 51.9177L52.6342 50.9855C52.0563 50.1093 50.9936 49.6619 49.9683 49.8856L48.8683 50.1093C47.06 50.4822 45.4567 48.8789 45.8109 47.0519L46.0346 45.952C46.2397 44.9266 45.8109 43.864 44.9347 43.286L44.0026 42.6708C42.4552 41.6455 42.4552 39.371 44.0026 38.3457L44.9347 37.7305C45.8109 37.1525 46.2583 36.0899 46.0346 35.0645L45.8109 33.9646C45.4381 32.1562 47.0413 30.553 48.8683 30.9072L49.9683 31.1309C50.9936 31.336 52.0563 30.9072 52.6342 30.031L53.2494 29.0988C54.2748 27.5515 56.5492 27.5515 57.5746 29.0988Z" stroke="#1C1C1C" stroke-width="2.5" stroke-miterlimit="10" stroke-linecap="round" stroke-linejoin="round"/>
<path d="M15.9824 16.8876H54.0138" stroke="#1C1C1C" stroke-width="2.5" stroke-miterlimit="10" stroke-linecap="round" stroke-linejoin="round"/>
<path d="M62.2724 60.2325V65.5271C62.2724 67.2608 60.2031 68.1557 58.9354 66.9626L55.2814 63.5882L51.6274 66.9626C50.3596 68.1557 48.2903 67.2608 48.2903 65.5271V60.2325" stroke="#1C1C1C" stroke-width="2.5" stroke-miterlimit="10" stroke-linecap="round" stroke-linejoin="round"/>
</svg>
