<svg width="70" height="70" viewBox="0 0 70 70" fill="none" xmlns="http://www.w3.org/2000/svg">
<path d="M35 13.8763V10.6881C35 6.02712 38.6729 2.13051 43.3339 2C43.4458 2 43.539 2 43.6508 2C50.0458 2 55.2475 7.18305 55.2475 13.5966C55.2475 13.7644 55.2475 13.9136 55.2288 14.0814C60.7661 14.2864 65.2034 18.8356 65.2034 24.4102C65.2034 26.2186 64.7373 27.9153 63.9169 29.4068C66.322 30.5068 68 32.9305 68 35.7458C68 37.2746 67.4966 38.7475 66.5644 39.9593C67.478 41.5068 68 43.2966 68 45.2169C68 50.3627 64.2339 54.6322 59.3119 55.4339C59.3678 55.9 59.3864 56.4034 59.3678 56.8881C59.1441 61.3814 55.3407 64.9424 50.8288 64.8492C49.8407 64.8305 48.8712 64.6441 47.9576 64.2898C47.1932 65.7627 45.9068 66.9186 44.3593 67.5339M26.3492 2C19.9542 2 14.7525 7.18305 14.7525 13.5966C14.7525 13.7644 14.7525 13.9136 14.7712 14.0814C9.2339 14.2678 4.79661 18.817 4.79661 24.4102C4.79661 26.2186 5.26271 27.9153 6.08305 29.4068C3.67797 30.4881 2 32.9119 2 35.7271C2 37.2559 2.50339 38.7288 3.43559 39.9407C2.52203 41.4881 2 43.278 2 45.1983C2 50.3441 5.7661 54.6136 10.6881 55.4153C10.6322 55.9 10.6136 56.3847 10.6322 56.8695C10.8559 61.3627 14.6593 64.9237 19.1712 64.8305C20.1593 64.8119 21.1288 64.6254 22.0424 64.2712C23.1983 66.4898 25.5288 68 28.1949 68C29.8729 68 31.4203 67.4034 32.6136 66.3966C34.161 65.1102 35 63.1712 35 61.1763V59.0508" stroke="#1C1C1C" stroke-width="2.5" stroke-miterlimit="10" stroke-linecap="round" stroke-linejoin="round"/>
<path d="M32.6321 48.4238L40.4253 40.873C41.9914 39.3442 40.9101 36.6781 38.7287 36.6781H31.5881C29.3881 36.6781 28.3067 34.012 29.8914 32.4831L37.9643 24.6526" stroke="#1C1C1C" stroke-width="2.5" stroke-miterlimit="10" stroke-linecap="round" stroke-linejoin="round"/>
</svg>
