<svg width="69" height="70" viewBox="0 0 69 70" fill="none" xmlns="http://www.w3.org/2000/svg">
<path d="M58.3543 43.9263L58.8401 44.3876C60.8386 46.4008 64.1695 46.4008 66.168 44.3876C68.1666 42.3745 67.7363 39.7323 66.168 37.076C61.6297 29.5268 56.4807 23.096 50.3741 18.2169C44.5034 18.2169 38.6744 20.5795 34.5247 24.7736L33.5115 25.7941C31.3742 27.947 27.9184 27.975 25.7395 25.864C23.4911 23.6971 23.5328 20.0203 25.7395 17.7975C35.6072 7.6899 49.2777 2 63.3507 2H67.5004M37.4392 8.2491C33.6087 6.18005 29.5283 4.6003 25.3231 3.55179M52.7474 52.6359C54.7459 54.649 58.0074 54.649 60.0059 52.6359C62.0044 50.6228 61.5742 47.9805 60.0059 45.3243M45.5443 60.0453C48.1813 61.6251 50.8043 62.0585 52.8029 60.0453C54.8014 58.0322 54.8014 54.7469 52.8029 52.7337L51.415 51.3357M33.5254 66.4202C34.5524 65.3438 36.2456 65.3158 37.3004 66.3503L37.4392 66.4901C39.4377 68.5033 42.6992 68.5033 44.6977 66.4901C46.6963 64.477 46.8767 61.3315 44.8781 59.3184M13.207 35.2586C11.1807 33.2175 7.90537 33.2175 5.89297 35.2586L3.51971 37.6492C1.49343 39.6903 1.49343 42.9896 3.51971 45.0167C5.546 47.0578 8.82137 47.0578 10.8338 45.0167L13.207 42.6261C15.2333 40.585 15.2333 37.2857 13.207 35.2586ZM34.9133 57.3891C32.887 55.348 29.6116 55.348 27.5992 57.3891L26.017 59.0807C23.9908 61.1218 23.9908 64.4211 26.017 66.4482C28.0433 68.4893 31.3187 68.4893 33.3311 66.4482L34.9133 64.7566C36.9257 62.7155 36.9257 59.4162 34.9133 57.3891ZM8.51604 47.1557C6.48975 49.1968 6.48975 52.4961 8.51604 54.5232C10.5423 56.5503 13.8177 56.5643 15.8301 54.5232L21.3954 49.057C23.4217 47.0159 23.4217 43.7166 21.3954 41.6895C19.3692 39.6484 16.0938 39.6484 14.0814 41.6895C14.0814 41.6755 8.51604 47.1557 8.51604 47.1557ZM28.6679 49.0011C26.6416 46.96 23.3662 46.96 21.3538 49.0011L15.8717 54.5651C13.8454 56.6062 13.8454 59.9055 15.8717 61.9326C17.898 63.9598 21.1734 63.9737 23.1858 61.9326L28.6679 56.3686C30.6803 54.3275 30.6803 51.0282 28.6679 49.0011Z" stroke="#1C1C1C" stroke-width="2.5" stroke-miterlimit="9.9973" stroke-linecap="round" stroke-linejoin="round"/>
<path d="M2.021 2H12.6937C13.3737 2 14.0538 2.01398 14.72 2.04194" stroke="#1C1C1C" stroke-width="2.5" stroke-miterlimit="9.9973" stroke-linecap="round" stroke-linejoin="round"/>
</svg>
