<svg width="70" height="70" viewBox="0 0 70 70" fill="none" xmlns="http://www.w3.org/2000/svg">
<path d="M2 28.6984C2 43.4459 13.9509 55.4154 28.717 55.4154C43.4832 55.4154 55.434 43.4645 55.434 28.6984C55.434 13.9322 43.4645 2.00001 28.717 2.00001C13.9695 2.00001 2 13.9509 2 28.6984Z" stroke="#1C1C1C" stroke-width="2.5" stroke-miterlimit="10" stroke-linecap="round" stroke-linejoin="round"/>
<path d="M22.9558 21.1472C22.9558 17.8286 25.6406 15.1252 28.9779 15.1252C32.3152 15.1252 34.9999 17.8099 34.9999 21.1472C34.9999 24.4659 32.3152 27.1693 28.9779 27.1693C25.6406 27.1693 22.9558 24.4845 22.9558 21.1472Z" stroke="#1C1C1C" stroke-width="2.5" stroke-miterlimit="10" stroke-linecap="round" stroke-linejoin="round"/>
<path d="M37.5169 42.1219C36.5847 38.5236 33.2661 35.8202 29.3322 35.8202H27.7661C23.8322 35.8202 20.5321 38.5049 19.5813 42.1219" stroke="#1C1C1C" stroke-width="2.5" stroke-miterlimit="10" stroke-linecap="round" stroke-linejoin="round"/>
<path d="M68.0006 68L55.4158 55.4898" stroke="#1C1C1C" stroke-width="2.5" stroke-miterlimit="10" stroke-linecap="round" stroke-linejoin="round"/>
</svg>
