<svg width="70" height="70" viewBox="0 0 70 70" fill="none" xmlns="http://www.w3.org/2000/svg">
<path d="M34.9345 19.2631L48.9156 5.27355C53.2778 0.908816 60.3662 0.908816 64.7284 5.27355C69.0905 9.63829 69.0905 16.731 64.7284 21.0957L46.7905 39.0443C42.4284 43.409 35.3399 43.409 30.9778 39.0443" stroke="#1C1C1C" stroke-width="2.5" stroke-miterlimit="9.9975" stroke-linecap="round" stroke-linejoin="round"/>
<path d="M34.9345 50.9075L21.191 64.6592C16.8288 69.0239 9.7264 69.1498 5.33631 64.8131C0.904276 60.4483 0.890296 53.3137 5.28039 48.9349L23.0645 31.1403C27.4266 26.7755 34.515 26.7755 38.8772 31.1403" stroke="#1C1C1C" stroke-width="2.5" stroke-miterlimit="9.9975" stroke-linecap="round" stroke-linejoin="round"/>
<path d="M9.60059 23.264L14.6618 25.6282M55.2072 44.5421L60.2684 46.9063M23.1204 9.73608L25.4832 14.8003M44.3858 55.37L46.7486 60.4342" stroke="#1C1C1C" stroke-width="2.5" stroke-miterlimit="9.9975" stroke-linecap="round" stroke-linejoin="round"/>
</svg>
