<svg width="70" height="70" viewBox="0 0 70 70" fill="none" xmlns="http://www.w3.org/2000/svg">
<path d="M48.8156 21.6719L38.9434 16.4062C37.768 15.779 36.4259 15.4237 35.0006 15.4237C33.5753 15.4237 32.2332 15.779 31.0577 16.406L21.1855 21.6718C19.4215 22.6128 18.2209 24.4713 18.2209 26.6101C18.2209 28.749 19.4215 30.6075 21.1856 31.5484L31.0578 36.8141C32.2332 37.4413 33.5753 37.7966 35.0006 37.7966C36.4259 37.7966 37.7681 37.4411 38.9435 36.8143L48.8157 31.5485C50.5797 30.6075 51.7803 28.749 51.7803 26.6101C51.7803 24.4713 50.5797 22.6128 48.8156 21.6719Z" stroke="#1C1C1C" stroke-width="2.5" stroke-miterlimit="10" stroke-linecap="round" stroke-linejoin="round"/>
<path d="M18.2209 26.6099V43.3895C18.2209 45.5284 19.4215 47.3869 21.1856 48.3278L31.0578 53.5935C32.2332 54.2207 33.5753 54.576 35.0006 54.576C36.4259 54.576 37.7681 54.2205 38.9435 53.5937L48.8157 48.3279C50.5797 47.3869 51.7803 45.5284 51.7803 43.3895V26.6099" stroke="#1C1C1C" stroke-width="2.5" stroke-miterlimit="10" stroke-linecap="round" stroke-linejoin="round"/>
<path d="M35 37.7966V54.5763" stroke="#1C1C1C" stroke-width="2.5" stroke-miterlimit="10" stroke-linecap="round" stroke-linejoin="round"/>
<path d="M7.59322 13.1864C10.6823 13.1864 13.1864 10.6823 13.1864 7.59322C13.1864 4.50417 10.6823 2 7.59322 2C4.50417 2 2 4.50417 2 7.59322C2 10.6823 4.50417 13.1864 7.59322 13.1864Z" stroke="#1C1C1C" stroke-width="2.5" stroke-miterlimit="10" stroke-linecap="round" stroke-linejoin="round"/>
<path d="M7.59322 67.9997C10.6823 67.9997 13.1864 65.4955 13.1864 62.4065C13.1864 59.3174 10.6823 56.8132 7.59322 56.8132C4.50417 56.8132 2 59.3174 2 62.4065C2 65.4955 4.50417 67.9997 7.59322 67.9997Z" stroke="#1C1C1C" stroke-width="2.5" stroke-miterlimit="10" stroke-linecap="round" stroke-linejoin="round"/>
<path d="M62.4067 67.9997C65.4957 67.9997 67.9999 65.4955 67.9999 62.4065C67.9999 59.3174 65.4957 56.8132 62.4067 56.8132C59.3176 56.8132 56.8135 59.3174 56.8135 62.4065C56.8135 65.4955 59.3176 67.9997 62.4067 67.9997Z" stroke="#1C1C1C" stroke-width="2.5" stroke-miterlimit="10" stroke-linecap="round" stroke-linejoin="round"/>
<path d="M62.4067 13.1864C65.4957 13.1864 67.9999 10.6823 67.9999 7.59322C67.9999 4.50417 65.4957 2 62.4067 2C59.3176 2 56.8135 4.50417 56.8135 7.59322C56.8135 10.6823 59.3176 13.1864 62.4067 13.1864Z" stroke="#1C1C1C" stroke-width="2.5" stroke-miterlimit="10" stroke-linecap="round" stroke-linejoin="round"/>
</svg>
